<svg id="Layer_1" data-name="Layer 1" xmlns="http://www.w3.org/2000/svg" xmlns:xlink="http://www.w3.org/1999/xlink" viewBox="0 0 60 60"><defs><style>.cls-1{fill:none;}.cls-2{clip-path:url(#clip-path);}.cls-3{clip-path:url(#clip-path-2);}.cls-4{fill:url(#linear-gradient);}.cls-5{fill:#fff;}</style><clipPath id="clip-path"><rect class="cls-1" width="60" height="60"/></clipPath><clipPath id="clip-path-2"><circle class="cls-1" cx="30" cy="30" r="30"/></clipPath><linearGradient id="linear-gradient" x1="-1546.21" y1="-518.68" x2="-1545.3" y2="-518.68" gradientTransform="matrix(66, 0, 0, -66, 102050, -34203)" gradientUnits="userSpaceOnUse"><stop offset="0" stop-color="#488fcb"/><stop offset="1" stop-color="#8b5fad"/></linearGradient></defs><title>aquarius</title><g id="Aquarius"><g class="cls-2"><g class="cls-3"><rect class="cls-4" width="60" height="60"/></g><g class="cls-2"><path class="cls-5" d="M39.47,29.63c-2.13,0-3.57-2.16-4.74-4.95-1.17,2.79-2.61,4.95-4.73,4.95s-3.56-2.16-4.73-4.95c-1.17,2.79-2.61,4.95-4.74,4.95-3.91,0-6.51-5-6.51-8.35a1.78,1.78,0,1,1,3.55,0c0,2,1.56,4.6,2.82,4.79a6.55,6.55,0,0,0,1.35-2.2,36.31,36.31,0,0,0,1.41-3.73l0-.09a2.19,2.19,0,0,1,4.17,0l0,.09a38.81,38.81,0,0,0,1.41,3.73A8,8,0,0,0,30,25.93a8,8,0,0,0,1.21-2.06c.59-1.3,1.08-2.76,1.41-3.73l0-.09a2.19,2.19,0,0,1,4.17,0l0,.09a38.47,38.47,0,0,0,1.4,3.73,6.66,6.66,0,0,0,1.36,2.2c1.25-.19,2.82-2.81,2.82-4.79a1.78,1.78,0,1,1,3.55,0c0,3.32-2.6,8.35-6.51,8.35M46,33.1a1.78,1.78,0,1,0-3.55,0c0,2-1.57,4.6-2.82,4.79a6.52,6.52,0,0,1-1.36-2.2A38.47,38.47,0,0,1,36.85,32l0-.09a2.19,2.19,0,0,0-4.17,0l0,.09c-.33,1-.82,2.43-1.41,3.73A8,8,0,0,1,30,37.75a8,8,0,0,1-1.21-2.06A38.81,38.81,0,0,1,27.38,32l0-.09a2.19,2.19,0,0,0-4.17,0l0,.09a36.31,36.31,0,0,1-1.41,3.73,6.41,6.41,0,0,1-1.35,2.2c-1.26-.19-2.82-2.8-2.82-4.79a1.78,1.78,0,1,0-3.55,0c0,3.33,2.6,8.36,6.51,8.36,2.13,0,3.57-2.16,4.74-5,1.17,2.8,2.61,5,4.73,5s3.56-2.16,4.73-5c1.17,2.8,2.61,5,4.74,5,3.91,0,6.51-5,6.51-8.36"/></g></g></g></svg>