<svg id="Layer_1" data-name="Layer 1" xmlns="http://www.w3.org/2000/svg" xmlns:xlink="http://www.w3.org/1999/xlink" viewBox="0 0 60 60"><defs><style>.cls-1{fill:none;}.cls-2{clip-path:url(#clip-path);}.cls-3{clip-path:url(#clip-path-2);}.cls-4{fill:url(#linear-gradient);}.cls-5{fill:#fff;}</style><clipPath id="clip-path"><rect class="cls-1" width="60" height="60"/></clipPath><clipPath id="clip-path-2"><circle class="cls-1" cx="30" cy="30" r="30"/></clipPath><linearGradient id="linear-gradient" x1="-2491.08" y1="-518.82" x2="-2490.15" y2="-518.82" gradientTransform="matrix(65, 0, 0, -65, 161920, -33693)" gradientUnits="userSpaceOnUse"><stop offset="0" stop-color="#e94745"/><stop offset="1" stop-color="#fb8845"/></linearGradient></defs><title>aries</title><g id="Aries"><g class="cls-2"><g class="cls-3"><rect class="cls-4" width="60" height="60"/></g><g class="cls-2"><path class="cls-5" d="M43.24,22.06a1.92,1.92,0,0,1-1.93-1.93,2.14,2.14,0,0,0-2-2.24c-.81,0-1.65.91-2.07,1.46a18.6,18.6,0,0,0-2.64,5.44A64.36,64.36,0,0,0,32,44.06,1.94,1.94,0,0,1,30,46h0a1.93,1.93,0,0,1-1.93-1.94,64.07,64.07,0,0,0-2.62-19.27,18.62,18.62,0,0,0-2.63-5.44c-.42-.54-1.26-1.46-2.07-1.46a2.16,2.16,0,0,0-2,2.24,1.94,1.94,0,1,1-3.87,0A6,6,0,0,1,20.73,14c2.39,0,5.78,1.66,8.38,9.56.32,1,.62,2,.89,3.1.27-1.08.57-2.12.89-3.1,2.6-7.9,6-9.56,8.38-9.56a6,6,0,0,1,5.91,6.12,1.93,1.93,0,0,1-1.94,1.93"/></g></g></g></svg>