<svg id="Layer_1" data-name="Layer 1" xmlns="http://www.w3.org/2000/svg" xmlns:xlink="http://www.w3.org/1999/xlink" viewBox="0 0 60 60"><defs><style>.cls-1{fill:none;}.cls-2{clip-path:url(#clip-path);}.cls-3{clip-path:url(#clip-path-2);}.cls-4{fill:url(#linear-gradient);}.cls-5{fill:#fff;}</style><clipPath id="clip-path"><rect class="cls-1" width="60" height="60"/></clipPath><clipPath id="clip-path-2"><circle class="cls-1" cx="30" cy="30" r="30"/></clipPath><linearGradient id="linear-gradient" x1="-2018.94" y1="-518.68" x2="-2018.03" y2="-518.68" gradientTransform="matrix(66, 0, 0, -66, 133250, -34203)" gradientUnits="userSpaceOnUse"><stop offset="0" stop-color="#de5fa9"/><stop offset="1" stop-color="#e94646"/></linearGradient></defs><title>capricorn</title><g id="Capricorn"><g class="cls-2"><g class="cls-3"><rect class="cls-4" width="60" height="60"/></g><g class="cls-2"><path class="cls-5" d="M46.43,21.43a4.9,4.9,0,0,0-9.39-2,13,13,0,0,0-7.14-2.13,1.64,1.64,0,0,0-1.54,1.09l-6,16.78L20.08,20.36a1.63,1.63,0,0,0-.86-1.2,1.61,1.61,0,0,0-1.48,0l-3.27,1.63a1.63,1.63,0,0,0,1.46,2.92l1.26-.63,2.93,19a1.63,1.63,0,0,0,1.46,1.38h.16a1.63,1.63,0,0,0,1.53-1.08L31,20.67A9.8,9.8,0,0,1,29.9,40.21a1.63,1.63,0,1,0,0,3.26A13.08,13.08,0,0,0,43,30.41a12.88,12.88,0,0,0-.67-4.14,4.91,4.91,0,0,0,4.14-4.84m-4.9,1.63a1.64,1.64,0,0,1,0-3.27,1.64,1.64,0,1,1,0,3.27"/></g></g></g></svg>