<svg xmlns="http://www.w3.org/2000/svg" viewBox="0 0 180 180"><defs><style>.cls-1{fill:#ad6477;}.cls-2{fill:#ffddbf;}.cls-3{fill:#fff4e0;}.cls-4{fill:#60c2a6;}</style></defs><title>how-it-works-monthly</title><g id="Monthly_Newsletter" data-name="Monthly Newsletter"><path class="cls-1" d="M114.46,48.2a4.1,4.1,0,0,1,0-8.19,10.64,10.64,0,1,0,0-21.27,4.09,4.09,0,1,1,0-8.18,18.82,18.82,0,1,1,0,37.64Z"/><path class="cls-1" d="M68.64,48.2a4.1,4.1,0,0,1,0-8.19,10.64,10.64,0,1,0,0-21.27,4.09,4.09,0,0,1,0-8.18,18.82,18.82,0,0,1,0,37.64Z"/><path class="cls-2" d="M161.39,43.83A16.36,16.36,0,0,0,145,27.47H38.37A16.35,16.35,0,0,0,22,43.83V60.47H161.39Z"/><path class="cls-3" d="M22,60.47V147.2a16.36,16.36,0,0,0,16.36,16.36H145a16.37,16.37,0,0,0,16.36-16.36V60.47Z"/><path class="cls-4" d="M58.51,122.64s5.09,5.47,12.22,5.47c5.63,0,9.73-3.42,9.73-8.05,0-5.7-5.24-8.35-11.55-8.35H65.19l-2.2-5L72.86,95a49.31,49.31,0,0,1,3.87-4.1v-.16A37.42,37.42,0,0,1,72,91H55.85V82.54h33v6.15L75.6,104C83,105,90.33,110.34,90.33,119.68c0,9.19-7,17.7-19,17.7a24.93,24.93,0,0,1-17.85-7.22Z"/><path class="cls-4" d="M98.53,128h11.69V98.11c0-1.82.08-3.64.08-3.64h-.15a12.27,12.27,0,0,1-2.36,3l-4.33,4.1-5.77-6.07,13.52-13h8.58V128h11.7v8.44h-33Z"/><path class="cls-1" d="M68.37,48.2a18.82,18.82,0,0,1,0-37.64,4.09,4.09,0,0,1,0,8.18,10.64,10.64,0,0,0,0,21.27,4.1,4.1,0,0,1,0,8.19Z"/><path class="cls-1" d="M114.74,48.2a18.82,18.82,0,1,1,0-37.64,4.09,4.09,0,1,1,0,8.18,10.64,10.64,0,1,0,0,21.27,4.1,4.1,0,0,1,0,8.19Z"/></g></svg>