<svg id="Saturn_Report" data-name="Saturn Report" xmlns="http://www.w3.org/2000/svg" xmlns:xlink="http://www.w3.org/1999/xlink" viewBox="0 0 180 180"><defs><style>.cls-1{fill:none;}.cls-2{fill:#fff4e0;}.cls-3{fill:#79d1bf;}.cls-4{clip-path:url(#clip-path);}.cls-16,.cls-20,.cls-5,.cls-8{isolation:isolate;}.cls-6{fill:#ad6477;}.cls-7{fill:#a63f61;}.cls-8{opacity:0.5;}.cls-9{clip-path:url(#clip-path-5);}.cls-10{clip-path:url(#clip-path-6);}.cls-11{fill:#eadae3;}.cls-12{fill:#e0a1a9;}.cls-13{clip-path:url(#clip-path-8);}.cls-14{clip-path:url(#clip-path-9);}.cls-15{fill:#d3a9bd;}.cls-16{opacity:0.3;}.cls-16,.cls-20{mix-blend-mode:multiply;}.cls-17{clip-path:url(#clip-path-11);}.cls-18{clip-path:url(#clip-path-12);}.cls-19{fill:#844659;}</style><clipPath id="clip-path"><rect class="cls-1" x="2.52" y="21.91" width="130.3" height="130.3"/></clipPath><clipPath id="clip-path-5"><rect class="cls-1" x="29.48" y="48.87" width="77.13" height="77.13"/></clipPath><clipPath id="clip-path-6"><rect class="cls-1" x="29.68" y="49.07" width="76.38" height="76.39"/></clipPath><clipPath id="clip-path-8"><rect class="cls-1" x="29.48" y="53.36" width="56.17" height="72.64"/></clipPath><clipPath id="clip-path-9"><rect class="cls-1" x="29.77" y="53.82" width="55.18" height="71.45"/></clipPath><clipPath id="clip-path-11"><rect class="cls-1" x="42.96" y="62.35" width="63.65" height="63.65"/></clipPath><clipPath id="clip-path-12"><rect class="cls-1" x="43.36" y="62.75" width="62.7" height="62.7"/></clipPath></defs><title>how-it-works-report</title><rect class="cls-2" x="67.67" y="17.42" width="101.85" height="139.29" rx="12" ry="12"/><rect class="cls-3" x="80.78" y="31.27" width="75.64" height="5.24"/><rect class="cls-3" x="80.78" y="44.56" width="75.64" height="5.24"/><rect class="cls-3" x="80.78" y="57.85" width="75.64" height="5.24"/><rect class="cls-3" x="80.78" y="71.15" width="75.64" height="5.24"/><rect class="cls-3" x="80.78" y="84.44" width="75.64" height="5.24"/><rect class="cls-3" x="80.78" y="97.73" width="75.64" height="5.24"/><rect class="cls-3" x="80.78" y="111.03" width="75.64" height="5.24"/><rect class="cls-3" x="80.78" y="124.32" width="75.64" height="5.24"/><rect class="cls-3" x="80.78" y="137.61" width="36.7" height="5.24"/><g class="cls-4"><g class="cls-5"><g class="cls-4"><g class="cls-4"><path class="cls-6" d="M94.88,60.25a38.19,38.19,0,1,1-54,0,38.21,38.21,0,0,1,54,0"/><path class="cls-7" d="M99.85,83.12a2.89,2.89,0,0,0,2.89-2.89V71.7A38.26,38.26,0,0,0,97,62.54V80.23a2.89,2.89,0,0,0,2.9,2.89"/><path class="cls-7" d="M75,103.49a2.64,2.64,0,0,0-2.63,2.64v19.09a38.28,38.28,0,0,0,5.27-1v-18.1A2.64,2.64,0,0,0,75,103.49"/><path class="cls-7" d="M72.32,55.12a2.9,2.9,0,0,0,5.79,0V50.48a38.24,38.24,0,0,0-5.79-1.13Z"/><path class="cls-7" d="M63,71.77h0a2.9,2.9,0,0,0,2.89-2.9V49.14a39.34,39.34,0,0,0-5.79.75v19a2.9,2.9,0,0,0,2.9,2.9"/><path class="cls-7" d="M50.76,121.44v-21.3a2.9,2.9,0,0,0-5.79,0v17.72a39.37,39.37,0,0,0,5.79,3.58"/><path class="cls-7" d="M65.4,116.5a1.45,1.45,0,0,0-2.9,0v8.6c1,.14,1.92.23,2.9.3Z"/><path class="cls-7" d="M32.57,94.72a2.9,2.9,0,0,0,2.89-2.89V67.06a38.23,38.23,0,0,0-5.29,26.39,2.88,2.88,0,0,0,2.4,1.27"/><path class="cls-7" d="M101.43,105.53a38.14,38.14,0,0,0,4.63-18.07,2.93,2.93,0,0,0-1.74-.58,2.89,2.89,0,0,0-2.89,2.89Z"/><path class="cls-7" d="M82.57,86v36.52a38.32,38.32,0,0,0,5.79-3V86a2.9,2.9,0,1,0-5.79,0"/></g><g class="cls-4"><g class="cls-8"><g class="cls-9"><g class="cls-10"><path class="cls-11" d="M72.29,81.71a1.43,1.43,0,0,0,2,0l21-21-.45-.47c-.53-.53-1.08-1-1.64-1.54L72.29,79.66a1.44,1.44,0,0,0,0,2"/><path class="cls-11" d="M44.72,75.4a2.89,2.89,0,0,0,4.09,0L73.34,50.86a2.87,2.87,0,0,0,.75-1.29,39,39,0,0,0-7.15-.49L44.72,71.3a2.9,2.9,0,0,0,0,4.1"/><path class="cls-11" d="M58.29,79.8a1.45,1.45,0,0,0,2,0l26-26c-.89-.49-1.8-1-2.73-1.37L58.29,77.75a1.44,1.44,0,0,0,0,2"/><path class="cls-11" d="M39.19,64.68a1.44,1.44,0,0,0,0-2.05,1.66,1.66,0,0,0-.31-.23,38.41,38.41,0,0,0-5.17,7.76Z"/><path class="cls-11" d="M80.64,108,63.42,125.19a37.81,37.81,0,0,0,8.1.09l13.21-13.21a2.9,2.9,0,0,0-4.09-4.1"/><path class="cls-11" d="M88.19,101.59a2.89,2.89,0,0,0,4.09,4.09l13.46-13.46a38.32,38.32,0,0,0,.17-8.36Z"/><path class="cls-11" d="M100.83,72.14a2.9,2.9,0,0,0-4.1,0L72.2,96.68a2.89,2.89,0,0,0,4.09,4.09l24.54-24.53a2.9,2.9,0,0,0,0-4.1"/><path class="cls-11" d="M70.4,102.56a2.89,2.89,0,0,0-4.09,0l-17.69,17.7a38.38,38.38,0,0,0,5.53,2.65L70.4,106.66a2.9,2.9,0,0,0,0-4.1"/><path class="cls-11" d="M54.13,80.66a2.89,2.89,0,0,0-4.09,0L31.56,99.13A38.16,38.16,0,0,0,34,104.9L54.13,84.75a2.89,2.89,0,0,0,0-4.09"/><path class="cls-11" d="M97.65,66.92a1.44,1.44,0,0,0,0,2,1.46,1.46,0,0,0,2,0l1.09-1.1c-.5-.84-1-1.68-1.6-2.49Z"/><path class="cls-11" d="M70.57,83.55a1.44,1.44,0,0,0-2,0L39.38,112.69c.48.54,1,1.06,1.49,1.58l.52.51L70.57,85.6a1.46,1.46,0,0,0,0-2"/><path class="cls-11" d="M42.8,77.22a1.45,1.45,0,1,0-2-2L29.69,86.23a38.09,38.09,0,0,0,.11,4Z"/></g></g></g><path class="cls-12" d="M44.61,67.23a1.44,1.44,0,0,0,2,0l18-18a37.29,37.29,0,0,0-4.8.71L44.61,65.19a1.43,1.43,0,0,0,0,2"/><path class="cls-12" d="M72.77,72.71a2.9,2.9,0,0,0-4.1,0L44.14,97.24a2.9,2.9,0,0,0,4.09,4.1L72.77,76.8a2.89,2.89,0,0,0,0-4.09"/><path class="cls-12" d="M65.49,101.12,90,76.59a2.89,2.89,0,0,0-4.09-4.09L61.4,97a2.89,2.89,0,1,0,4.09,4.09"/><path class="cls-12" d="M99.88,101.08a2.89,2.89,0,0,0,0,4.09,3,3,0,0,0,1.32.76,37.89,37.89,0,0,0,3.88-10.06Z"/><path class="cls-12" d="M86.24,97a1.44,1.44,0,0,0-2,0l-27,27c1.09.31,2.19.58,3.3.79L86.24,99a1.45,1.45,0,0,0,0-2"/><path class="cls-12" d="M31,97.21l15.9-15.9a1.45,1.45,0,1,0-2-2L30.25,93.85c.2,1.13.44,2.25.74,3.36"/></g><g class="cls-4"><g class="cls-8"><g class="cls-13"><g class="cls-14"><path class="cls-15" d="M41,114.17a38,38,0,0,0,24.44,11.1A38.2,38.2,0,0,0,49.33,53.82,38.22,38.22,0,0,0,41,114.17"/></g></g></g></g><g class="cls-4"><g class="cls-16"><g class="cls-17"><g class="cls-18"><path class="cls-19" d="M71.64,91a331,331,0,0,1-28.28,25.52,38.19,38.19,0,0,0,53.8-53.8A332.51,332.51,0,0,1,71.64,91"/></g></g></g></g><g class="cls-4"><g class="cls-20"><g class="cls-4"><g class="cls-4"><path class="cls-6" d="M132.56,22.16c-2.24-2.23-18.83,10.48-41.1,30.88a.16.16,0,0,0,0,.25l.77.56a.16.16,0,0,0,.2,0c6-4.82,10-7.32,10.75-6.52C105,49.14,89.66,67.48,68.87,88.26s-39.11,36.15-40.94,34.32c-.8-.8,1.71-4.77,6.52-10.74a.16.16,0,0,0,0-.2c-.19-.25-.38-.51-.56-.77a.16.16,0,0,0-.25,0C13.25,133.12.54,149.71,2.78,151.94c3.15,3.15,36.59-21.51,72.43-57.35s60.5-69.28,57.35-72.43"/></g></g></g></g></g></g></g></svg>