<svg xmlns="http://www.w3.org/2000/svg" viewBox="0 0 180 180"><defs><style>.cls-1{fill:#ffddbf;}.cls-2{fill:#fff4e0;}.cls-3{fill:#60c2a6;}.cls-4{fill:#dbbea4;}.cls-5{fill:#ad6477;}</style></defs><title>how-it-works-sample</title><g id="Free_Newsletter" data-name="Free Newsletter"><path class="cls-1" d="M165.88,71s0-.07,0-.11l-.07-2.2a14.62,14.62,0,0,0-7-12.07l-56-34.1a25,25,0,0,0-26.54,0l-53,33.05a16.74,16.74,0,0,0-2.45,1.53l-.39.24a14.62,14.62,0,0,0-6.9,12.44v.92c0,.13,0,.26,0,.39s0,.19,0,.29v9L20.72,85a17.56,17.56,0,0,0,2.55,1.59l53,33a25,25,0,0,0,26.54,0l62.78-38.23.31-10.14A1.37,1.37,0,0,1,165.88,71Z"/><rect class="cls-2" x="28.7" y="11.56" width="121.68" height="121.68" rx="12" ry="12"/><rect class="cls-3" x="44.36" y="28.11" width="90.37" height="6.26"/><rect class="cls-3" x="44.36" y="43.99" width="90.37" height="6.26"/><rect class="cls-3" x="44.36" y="59.87" width="90.37" height="6.26"/><rect class="cls-3" x="44.36" y="75.76" width="90.37" height="6.26"/><rect class="cls-3" x="44.36" y="91.64" width="90.37" height="6.26"/><rect class="cls-3" x="44.36" y="107.52" width="90.37" height="6.26"/><path class="cls-1" d="M102.81,125a25.06,25.06,0,0,1-26.54,0L13.49,85.71v61a17.89,17.89,0,0,0,17.89,17.9H148a17.89,17.89,0,0,0,17.89-17.9V85.82c0-.1,0-.2,0-.3Z"/><path class="cls-4" d="M54,111.76,15.62,155.14a17.9,17.9,0,0,0,4.66,5.54L60.19,115.6Z"/><path class="cls-4" d="M118.35,115.64l40.77,45a18,18,0,0,0,4.66-5.54l-39.22-43.28Z"/><path class="cls-5" d="M165.91,84c0-.1,0-.2,0-.3a17.68,17.68,0,0,0-.4-3.44L101.15,120.5a22,22,0,0,1-23.22,0l-64.07-40a18,18,0,0,0-.37,3.46v3.69l61.12,38.21a28.35,28.35,0,0,0,29.86,0l61.44-38.41Z"/></g></svg>