<svg id="Layer_1" data-name="Layer 1" xmlns="http://www.w3.org/2000/svg" xmlns:xlink="http://www.w3.org/1999/xlink" viewBox="0 0 60 60"><defs><style>.cls-1{fill:none;}.cls-2{clip-path:url(#clip-path);}.cls-3{clip-path:url(#clip-path-2);}.cls-4{fill:url(#linear-gradient);}.cls-5{fill:#fff;}</style><clipPath id="clip-path"><rect class="cls-1" width="60" height="60"/></clipPath><clipPath id="clip-path-2"><circle class="cls-1" cx="30" cy="30" r="30"/></clipPath><linearGradient id="linear-gradient" x1="-2730.67" y1="-501.32" x2="-2729.76" y2="-501.32" gradientTransform="matrix(-66, 0, 0, 66, -180164, 33117)" gradientUnits="userSpaceOnUse"><stop offset="0" stop-color="#fcf545"/><stop offset="1" stop-color="#fed545"/></linearGradient></defs><title>leo</title><g id="Leo"><g class="cls-2"><g class="cls-3"><rect class="cls-4" width="60" height="60"/></g><g class="cls-2"><path class="cls-5" d="M20.85,34a3.3,3.3,0,1,1-3.19,3.3A3.26,3.26,0,0,1,20.85,34m24.78,5.65a1.94,1.94,0,0,0-2.74,0,3.73,3.73,0,0,1-5.37,0,4,4,0,0,1,0-5.59.86.86,0,0,0,.13-.14,11.15,11.15,0,0,0-.13-15.4,10.7,10.7,0,0,0-15.34,0A11,11,0,0,0,19,26.32a11.35,11.35,0,0,0,.69,3.9,7.16,7.16,0,1,0,8.21,7.08,7.19,7.19,0,0,0-2.81-5.72,1.63,1.63,0,0,0-.17-.2,7.26,7.26,0,0,1,0-10.12,6.82,6.82,0,0,1,9.81,0,7.26,7.26,0,0,1,0,10.12l-.14.16a7.9,7.9,0,0,0,.15,10.85,7.61,7.61,0,0,0,10.9,0,1.94,1.94,0,0,0,0-2.74"/></g></g></g></svg>