<svg id="Layer_1" data-name="Layer 1" xmlns="http://www.w3.org/2000/svg" xmlns:xlink="http://www.w3.org/1999/xlink" viewBox="0 0 60 60"><defs><style>.cls-1{fill:none;}.cls-2{clip-path:url(#clip-path);}.cls-3{clip-path:url(#clip-path-2);}.cls-4{fill:url(#linear-gradient);}.cls-5{fill:#fff;}</style><clipPath id="clip-path"><rect class="cls-1" width="60" height="60"/></clipPath><clipPath id="clip-path-2"><circle class="cls-1" cx="30" cy="30" r="30"/></clipPath><linearGradient id="linear-gradient" x1="-1231.06" y1="-518.68" x2="-1230.15" y2="-518.68" gradientTransform="matrix(66, 0, 0, -66, 81250, -34203)" gradientUnits="userSpaceOnUse"><stop offset="0" stop-color="#59c046"/><stop offset="1" stop-color="#60c3a5"/></linearGradient></defs><title>libra</title><g id="Libra"><g class="cls-2"><g class="cls-3"><rect class="cls-4" width="60" height="60"/></g><g class="cls-2"><path class="cls-5" d="M45.6,41.38H14.4a1.94,1.94,0,1,1,0-3.87H45.6a1.94,1.94,0,1,1,0,3.87m0-6.84H35a1.94,1.94,0,0,1-1.38-3.29,5.09,5.09,0,1,0-7.23,0A1.94,1.94,0,0,1,25,34.54H14.4a1.94,1.94,0,1,1,0-3.88h7.2a9.15,9.15,0,0,1-.51-3,9,9,0,1,1,17.91,0,9.12,9.12,0,0,1-.52,3H45.6a1.94,1.94,0,1,1,0,3.87"/></g></g></g></svg>