<svg id="Layer_1" data-name="Layer 1" xmlns="http://www.w3.org/2000/svg" xmlns:xlink="http://www.w3.org/1999/xlink" viewBox="0 0 60 60"><defs><style>.cls-1{fill:none;}.cls-2{clip-path:url(#clip-path);}.cls-3{clip-path:url(#clip-path-2);}.cls-4{fill:url(#linear-gradient);}.cls-5{fill:#fff;}</style><clipPath id="clip-path"><rect class="cls-1" width="60" height="60"/></clipPath><clipPath id="clip-path-2"><circle class="cls-1" cx="30" cy="30" r="30"/></clipPath><linearGradient id="linear-gradient" x1="-2333.54" y1="-518.82" x2="-2332.62" y2="-518.82" gradientTransform="matrix(65, 0, 0, -65, 151680, -33693)" gradientUnits="userSpaceOnUse"><stop offset="0" stop-color="#fb8845"/><stop offset="1" stop-color="#f5b645"/></linearGradient></defs><title>sagitarius</title><g id="Sagitarius"><g class="cls-2"><g class="cls-3"><rect class="cls-4" width="60" height="60"/></g><g class="cls-2"><path class="cls-5" d="M43.63,18.1V30.26a1.94,1.94,0,1,1-3.87,0V22.48l-8.86,9.3,6.32,6a1.92,1.92,0,0,1,.07,2.73,1.9,1.9,0,0,1-1.4.61,1.94,1.94,0,0,1-1.33-.53l-6.33-6-8.59,9.2a1.92,1.92,0,0,1-1.4.6,1.89,1.89,0,0,1-1.33-.53,1.93,1.93,0,0,1-.07-2.74l8.58-9.19-6.31-6a1.93,1.93,0,1,1,2.66-2.81l6.32,6,9.17-9.62H29.59a1.94,1.94,0,1,1,0-3.87H41.72a1.92,1.92,0,0,1,1.38.53,2,2,0,0,1,.53,2"/></g></g></g></svg>