<svg id="Layer_1" data-name="Layer 1" xmlns="http://www.w3.org/2000/svg" xmlns:xlink="http://www.w3.org/1999/xlink" viewBox="0 0 60 60"><defs><style>.cls-1{fill:none;}.cls-2{clip-path:url(#clip-path);}.cls-3{clip-path:url(#clip-path-2);}.cls-4{fill:url(#linear-gradient);}.cls-5{fill:#fff;}</style><clipPath id="clip-path"><rect class="cls-1" width="60" height="60"/></clipPath><clipPath id="clip-path-2"><circle class="cls-1" cx="30" cy="30" r="30"/></clipPath><linearGradient id="linear-gradient" x1="-1860.92" y1="-518.82" x2="-1860" y2="-518.82" gradientTransform="matrix(65, 0, 0, -65, 120960, -33693)" gradientUnits="userSpaceOnUse"><stop offset="0" stop-color="#b659a4"/><stop offset="1" stop-color="#dd5fa9"/></linearGradient></defs><title>scorpio</title><g id="Scorpio"><g class="cls-2"><g class="cls-3"><rect class="cls-4" width="60" height="60"/></g><g class="cls-2"><path class="cls-5" d="M45.38,43.73l-3,3.09a1.89,1.89,0,0,1-1.4.6,2,2,0,0,1-.72-.13,2,2,0,0,1-1.21-1.8V44.3a6.44,6.44,0,0,1-5.89-6.41V20.18a3.78,3.78,0,0,0-3.49,0V37.45a1.94,1.94,0,0,1-3.87,0V20.18a3.78,3.78,0,0,0-3.49,0V37.44a1.94,1.94,0,1,1-3.87,0V19.93l-3.88-4.09a1.93,1.93,0,0,1,2.81-2.66l3.31,3.49a7.63,7.63,0,0,1,7.06.15,7.63,7.63,0,0,1,8.6.86,2,2,0,0,1,.69,1.48V37.89a2.58,2.58,0,0,0,2,2.51V39.29A1.93,1.93,0,0,1,42.43,38l3,3.1a1.94,1.94,0,0,1,0,2.67"/></g></g></g></svg>