<svg id="Layer_1" data-name="Layer 1" xmlns="http://www.w3.org/2000/svg" xmlns:xlink="http://www.w3.org/1999/xlink" viewBox="0 0 60 60"><defs><style>.cls-1{fill:none;}.cls-2{clip-path:url(#clip-path);}.cls-3{clip-path:url(#clip-path-2);}.cls-4{fill:url(#linear-gradient);}.cls-5{fill:#fff;}</style><clipPath id="clip-path"><rect class="cls-1" width="60" height="60"/></clipPath><clipPath id="clip-path-2"><circle class="cls-1" cx="30" cy="30" r="30"/></clipPath><linearGradient id="linear-gradient" x1="-1073.23" y1="-518.82" x2="-1072.31" y2="-518.82" gradientTransform="matrix(65, 0, 0, -65, 69760, -33693)" gradientUnits="userSpaceOnUse"><stop offset="0" stop-color="#c3dc45"/><stop offset="1" stop-color="#59c045"/></linearGradient></defs><title>virgo</title><g id="Virgo"><g class="cls-2"><g class="cls-3"><rect class="cls-4" width="60" height="60"/></g><g class="cls-2"><path class="cls-5" d="M39.81,24.91a15.43,15.43,0,0,1-2.5,8.42,19.35,19.35,0,0,1-1-6V24.84a3.73,3.73,0,0,1,3.47,0Zm5.86,18.88a19.22,19.22,0,0,1-6.5-6.46,19.42,19.42,0,0,0,4.51-12.42V23.82A1.93,1.93,0,0,0,43,22.34a7.62,7.62,0,0,0-6.65-1.6V19.18a1.93,1.93,0,0,0-.69-1.48,7.61,7.61,0,0,0-8.58-.85,7.62,7.62,0,0,0-7-.16l-3.3-3.48a1.94,1.94,0,1,0-2.81,2.67L17.79,20V37.42a1.94,1.94,0,1,0,3.87,0V20.2a3.79,3.79,0,0,1,3.47,0V37.42a1.94,1.94,0,1,0,3.87,0V20.2a3.79,3.79,0,0,1,3.47,0v7.08a23.35,23.35,0,0,0,2,9.36,15.34,15.34,0,0,1-3.77,2.41,1.94,1.94,0,0,0,.8,3.7,1.88,1.88,0,0,0,.79-.17,19.62,19.62,0,0,0,4.08-2.49,23.07,23.07,0,0,0,7.33,7,1.94,1.94,0,0,0,2-3.32"/></g></g></g></svg>