<svg id="Layer_1" data-name="Layer 1" xmlns="http://www.w3.org/2000/svg" xmlns:xlink="http://www.w3.org/1999/xlink" viewBox="0 0 60 60"><defs><style>.cls-1{fill:none;}.cls-2{clip-path:url(#clip-path);}.cls-3{clip-path:url(#clip-path-2);}.cls-4{fill:url(#linear-gradient);}.cls-5{fill:#fff;}</style><clipPath id="clip-path"><rect class="cls-1" width="60" height="60"/></clipPath><clipPath id="clip-path-2"><circle class="cls-1" cx="30" cy="30" r="30"/></clipPath><linearGradient id="linear-gradient" x1="-1388.64" y1="-518.68" x2="-1387.73" y2="-518.68" gradientTransform="matrix(66, 0, 0, -66, 91650, -34203)" gradientUnits="userSpaceOnUse"><stop offset="0" stop-color="#60c3a6"/><stop offset="1" stop-color="#4990cb"/></linearGradient></defs><title>cancer</title><g id="Cancer"><g class="cls-2"><g class="cls-3"><rect class="cls-4" width="60" height="60"/></g><g class="cls-2"><path class="cls-5" d="M39.68,28.46a6.3,6.3,0,0,0-6.31,6.28,6.23,6.23,0,0,0,1.93,4.51,26.36,26.36,0,0,1-5.3.52c-7.4,0-12.12-2.77-12.12-4.67a1.94,1.94,0,0,0-3.87,0c0,2.56,1.86,4.84,5.23,6.42A25.87,25.87,0,0,0,30,43.64a26.06,26.06,0,0,0,10.76-2.11C44.13,39.94,46,37.66,46,35.11A.61.61,0,0,0,46,35a1.77,1.77,0,0,0,0-.23,6.3,6.3,0,0,0-6.31-6.28m0,8.69a2.48,2.48,0,1,1,2.48-2.48,2.48,2.48,0,0,1-2.48,2.48"/><path class="cls-5" d="M20.32,31.54a6.3,6.3,0,0,0,6.31-6.28,6.23,6.23,0,0,0-1.93-4.51,26.29,26.29,0,0,1,5.3-.52c7.4,0,12.12,2.77,12.12,4.67a1.94,1.94,0,0,0,3.87,0c0-2.56-1.86-4.84-5.23-6.42A25.9,25.9,0,0,0,30,16.36a26.06,26.06,0,0,0-10.76,2.11C15.87,20.06,14,22.34,14,24.89v.37a6.3,6.3,0,0,0,6.31,6.28m0-8.69a2.48,2.48,0,1,1-2.48,2.48,2.48,2.48,0,0,1,2.48-2.48"/></g></g></g></svg>