<svg id="Layer_1" data-name="Layer 1" xmlns="http://www.w3.org/2000/svg" viewBox="0 0 30.67 50.33"><defs><style>.cls-1{fill:#dd5ea6;}</style></defs><title>logo-symbol</title><path class="cls-1" d="M27,18.13a9.93,9.93,0,0,0-9.69-2.51V8.38A8.22,8.22,0,0,0,9.11.13L3.79.07A1.14,1.14,0,0,0,2.65,1.21V3.66A1.14,1.14,0,0,0,3.79,4.8l5.32.06a3.57,3.57,0,0,1,3.53,3.52V9.1H7.5A7.37,7.37,0,0,0,.08,16.28a7,7,0,0,0,3,6,7,7,0,0,0,4.25,1.43,7.08,7.08,0,0,0,2.21-.35l3.11-1v8H10.13A9.88,9.88,0,0,0,4.51,48.46a10,10,0,0,0,9.33.83l3.23-1.37a1.13,1.13,0,0,0,.59-1.5l-.95-2.27a1.12,1.12,0,0,0-1.5-.6L12,44.93a5,5,0,0,1-5.08-.6,5.31,5.31,0,0,1-2-3.35A5.13,5.13,0,0,1,10,35.06H20.06a9.86,9.86,0,0,0,9.75-11.19A9.42,9.42,0,0,0,27,18.13m-18.9.66h0a2.57,2.57,0,0,1-2.28-.36,2.5,2.5,0,0,1-1-2,2.54,2.54,0,0,1,2.57-2.57H12.7v3.59Zm12,11.48H17.37V20.64l.71-.29a5,5,0,0,1,4.85.41,5.15,5.15,0,0,1,2.33,4.31,5.28,5.28,0,0,1-5.2,5.2"/></svg>