<svg id="Layer_1" data-name="Layer 1" xmlns="http://www.w3.org/2000/svg" xmlns:xlink="http://www.w3.org/1999/xlink" viewBox="0 0 60 60"><defs><style>.cls-1{fill:none;}.cls-2{clip-path:url(#clip-path);}.cls-3{clip-path:url(#clip-path-2);}.cls-4{fill:url(#linear-gradient);}.cls-5{fill:#fff;}</style><clipPath id="clip-path"><rect class="cls-1" width="60" height="60"/></clipPath><clipPath id="clip-path-2"><circle class="cls-1" cx="30" cy="30" r="30"/></clipPath><linearGradient id="linear-gradient" x1="-1703.79" y1="-518.68" x2="-1702.88" y2="-518.68" gradientTransform="matrix(66, 0, 0, -66, 112450, -34203)" gradientUnits="userSpaceOnUse"><stop offset="0" stop-color="#8c5fac"/><stop offset="1" stop-color="#b659a4"/></linearGradient></defs><title>pisces</title><g id="Pisces"><g class="cls-2"><g class="cls-3"><rect class="cls-4" width="60" height="60"/></g><g class="cls-2"><path class="cls-5" d="M41.84,31.94H36.57c.43,6.27,2.9,10.18,4.64,10.18a1.94,1.94,0,1,1,0,3.87c-2.57,0-4.85-1.85-6.45-5.22a24.55,24.55,0,0,1-2.06-8.83H27.3a24.44,24.44,0,0,1-2.07,8.82C23.64,44.13,21.35,46,18.79,46a1.94,1.94,0,1,1,0-3.87c1.74,0,4.2-3.91,4.63-10.19H18.16a1.94,1.94,0,1,1,0-3.87h5.26c-.42-6.27-2.89-10.18-4.63-10.18a1.94,1.94,0,1,1,0-3.87c2.57,0,4.85,1.86,6.44,5.23a24.29,24.29,0,0,1,2.07,8.82h5.4a24.5,24.5,0,0,1,2.07-8.83C36.36,15.87,38.65,14,41.21,14a1.94,1.94,0,1,1,0,3.87c-1.74,0-4.2,3.91-4.63,10.19h5.26a1.94,1.94,0,1,1,0,3.87"/></g></g></g></svg>