<svg id="Layer_2" data-name="Layer 2" xmlns="http://www.w3.org/2000/svg" xmlns:xlink="http://www.w3.org/1999/xlink" viewBox="0 0 120 120"><defs><style>.cls-1{fill:none;}.cls-2{clip-path:url(#clip-path);}.cls-14,.cls-18,.cls-3,.cls-6{isolation:isolate;}.cls-4{fill:#ad6477;}.cls-5{fill:#a63f61;}.cls-6{opacity:0.5;}.cls-7{clip-path:url(#clip-path-5);}.cls-8{clip-path:url(#clip-path-6);}.cls-9{fill:#eadae3;}.cls-10{fill:#e0a1a9;}.cls-11{clip-path:url(#clip-path-8);}.cls-12{clip-path:url(#clip-path-9);}.cls-13{fill:#d3a9bd;}.cls-14{opacity:0.3;}.cls-14,.cls-18{mix-blend-mode:multiply;}.cls-15{clip-path:url(#clip-path-11);}.cls-16{clip-path:url(#clip-path-12);}.cls-17{fill:#844659;}</style><clipPath id="clip-path"><rect class="cls-1" x="1.13" y="1.13" width="117.75" height="117.75"/></clipPath><clipPath id="clip-path-5"><rect class="cls-1" x="25.49" y="25.49" width="69.7" height="69.7"/></clipPath><clipPath id="clip-path-6"><rect class="cls-1" x="25.67" y="25.67" width="69.02" height="69.03"/></clipPath><clipPath id="clip-path-8"><rect class="cls-1" x="25.49" y="29.55" width="50.75" height="65.64"/></clipPath><clipPath id="clip-path-9"><rect class="cls-1" x="25.75" y="29.96" width="49.87" height="64.57"/></clipPath><clipPath id="clip-path-11"><rect class="cls-1" x="37.67" y="37.67" width="57.52" height="57.52"/></clipPath><clipPath id="clip-path-12"><rect class="cls-1" x="38.03" y="38.03" width="56.66" height="56.66"/></clipPath></defs><title>saturn</title><g class="cls-2"><g class="cls-3"><g class="cls-2"><g class="cls-2"><path class="cls-4" d="M84.58,35.77a34.51,34.51,0,1,1-48.81,0,34.51,34.51,0,0,1,48.81,0"/><path class="cls-5" d="M89.07,56.44a2.61,2.61,0,0,0,2.62-2.61V46.12a34.71,34.71,0,0,0-5.23-8.28v16a2.61,2.61,0,0,0,2.61,2.61"/><path class="cls-5" d="M66.58,74.85a2.37,2.37,0,0,0-2.38,2.38V94.48A35.69,35.69,0,0,0,69,93.59V77.23a2.38,2.38,0,0,0-2.38-2.38"/><path class="cls-5" d="M64.2,31.13a2.62,2.62,0,1,0,5.23,0V27a33.6,33.6,0,0,0-5.23-1Z"/><path class="cls-5" d="M55.73,46.18h0a2.61,2.61,0,0,0,2.61-2.62V25.74a34.62,34.62,0,0,0-5.23.67V43.56a2.62,2.62,0,0,0,2.62,2.62"/><path class="cls-5" d="M44.71,91.07V71.82a2.62,2.62,0,0,0-5.23,0v16a35.08,35.08,0,0,0,5.23,3.24"/><path class="cls-5" d="M57.94,86.6a1.31,1.31,0,1,0-2.61,0v7.78c.86.12,1.73.21,2.61.26Z"/><path class="cls-5" d="M28.27,66.92a2.61,2.61,0,0,0,2.62-2.61V41.93a34.56,34.56,0,0,0-4.78,23.84,2.59,2.59,0,0,0,2.16,1.15"/><path class="cls-5" d="M90.5,76.69a34.25,34.25,0,0,0,4.18-16.33,2.55,2.55,0,0,0-1.56-.53,2.62,2.62,0,0,0-2.62,2.62Z"/><path class="cls-5" d="M73.46,59.06v33a34.15,34.15,0,0,0,5.23-2.73V59.06a2.62,2.62,0,1,0-5.23,0"/></g><g class="cls-2"><g class="cls-6"><g class="cls-7"><g class="cls-8"><path class="cls-9" d="M64.17,55.16a1.29,1.29,0,0,0,1.85,0l19-19-.41-.42c-.48-.48-1-.94-1.48-1.39L64.17,53.32a1.3,1.3,0,0,0,0,1.84"/><path class="cls-9" d="M39.25,49.46a2.62,2.62,0,0,0,3.7,0L65.12,27.29a2.6,2.6,0,0,0,.68-1.16,33.33,33.33,0,0,0-6.46-.45L39.25,45.76a2.62,2.62,0,0,0,0,3.7"/><path class="cls-9" d="M51.52,53.44a1.31,1.31,0,0,0,1.85,0L76.85,30c-.81-.44-1.63-.86-2.46-1.23L51.52,51.59a1.31,1.31,0,0,0,0,1.85"/><path class="cls-9" d="M34.26,39.77a1.31,1.31,0,0,0,0-1.85,1.86,1.86,0,0,0-.28-.21,34.65,34.65,0,0,0-4.67,7Z"/><path class="cls-9" d="M71.71,78.9,56.15,94.46a35.12,35.12,0,0,0,7.32.08L75.41,82.6a2.62,2.62,0,1,0-3.7-3.7"/><path class="cls-9" d="M78.54,73.13a2.62,2.62,0,0,0,3.7,3.7L94.4,64.66a34,34,0,0,0,.15-7.55Z"/><path class="cls-9" d="M90,46.52a2.62,2.62,0,0,0-3.7,0L64.09,68.69a2.62,2.62,0,0,0,3.7,3.7L90,50.22a2.62,2.62,0,0,0,0-3.7"/><path class="cls-9" d="M62.47,74a2.62,2.62,0,0,0-3.7,0l-16,16a34.73,34.73,0,0,0,5,2.4L62.47,77.71a2.62,2.62,0,0,0,0-3.7"/><path class="cls-9" d="M47.76,54.21a2.62,2.62,0,0,0-3.7,0L27.37,70.91a34.24,34.24,0,0,0,2.19,5.21l18.2-18.21a2.62,2.62,0,0,0,0-3.7"/><path class="cls-9" d="M87.09,41.8a1.29,1.29,0,0,0,0,1.85,1.31,1.31,0,0,0,1.85,0l1-1q-.67-1.15-1.44-2.25Z"/><path class="cls-9" d="M62.61,56.83a1.31,1.31,0,0,0-1.85,0L34.43,83.16c.43.48.88,1,1.34,1.42l.48.46L62.61,58.68a1.29,1.29,0,0,0,0-1.85"/><path class="cls-9" d="M37.53,51.11a1.31,1.31,0,0,0-1.85-1.85l-10,10c0,1.21,0,2.41.09,3.61Z"/></g></g></g><path class="cls-10" d="M39.16,42.08a1.31,1.31,0,0,0,1.85,0L57.3,25.79a33.9,33.9,0,0,0-4.34.64l-13.8,13.8a1.31,1.31,0,0,0,0,1.85"/><path class="cls-10" d="M64.6,47a2.62,2.62,0,0,0-3.7,0L38.73,69.2a2.62,2.62,0,1,0,3.7,3.7L64.6,50.73a2.62,2.62,0,0,0,0-3.7"/><path class="cls-10" d="M58,72.71,80.2,50.54a2.62,2.62,0,0,0-3.7-3.7L54.33,69a2.62,2.62,0,0,0,3.7,3.7"/><path class="cls-10" d="M89.1,72.67a2.62,2.62,0,0,0,0,3.7,2.73,2.73,0,0,0,1.2.68A34.64,34.64,0,0,0,93.81,68Z"/><path class="cls-10" d="M76.78,69a1.31,1.31,0,0,0-1.85,0L50.56,93.33c1,.29,2,.53,3,.72L76.78,70.82a1.31,1.31,0,0,0,0-1.85"/><path class="cls-10" d="M26.85,69.17,41.22,54.8A1.31,1.31,0,1,0,39.37,53L26.18,66.14c.18,1,.4,2,.67,3"/></g><g class="cls-2"><g class="cls-6"><g class="cls-11"><g class="cls-12"><path class="cls-13" d="M35.86,84.5A34.38,34.38,0,0,0,58,94.53,34.52,34.52,0,0,0,43.42,30,34.54,34.54,0,0,0,35.86,84.5"/></g></g></g></g><g class="cls-2"><g class="cls-14"><g class="cls-15"><g class="cls-16"><path class="cls-17" d="M63.58,63.58A298.41,298.41,0,0,1,38,86.65,34.52,34.52,0,0,0,86.65,38,298.41,298.41,0,0,1,63.58,63.58"/></g></g></g></g><g class="cls-2"><g class="cls-18"><g class="cls-2"><g class="cls-2"><path class="cls-4" d="M118.63,1.35c-2-2-17,9.47-37.13,27.9a.15.15,0,0,0,0,.23l.7.51a.15.15,0,0,0,.18,0c5.39-4.35,9-6.62,9.71-5.89,1.65,1.65-12.23,18.21-31,37s-35.34,32.67-37,31c-.73-.72,1.54-4.32,5.89-9.7a.17.17,0,0,0,0-.19l-.51-.7a.15.15,0,0,0-.23,0C10.82,101.62-.67,116.61,1.36,118.63c2.84,2.85,33.06-19.44,65.45-51.82S121.48,4.2,118.63,1.35"/></g></g></g></g></g></g></g></svg>