<svg id="Layer_1" data-name="Layer 1" xmlns="http://www.w3.org/2000/svg" xmlns:xlink="http://www.w3.org/1999/xlink" viewBox="0 0 60 60"><defs><style>.cls-1{fill:none;}.cls-2{clip-path:url(#clip-path);}.cls-3{clip-path:url(#clip-path-2);}.cls-4{fill:url(#linear-gradient);}.cls-5{fill:#fff;}</style><clipPath id="clip-path"><rect class="cls-1" width="60" height="60"/></clipPath><clipPath id="clip-path-2"><circle class="cls-1" cx="30" cy="30" r="30"/></clipPath><linearGradient id="linear-gradient" x1="-2176" y1="-518.82" x2="-2175.08" y2="-518.82" gradientTransform="matrix(65, 0, 0, -65, 141440, -33693)" gradientUnits="userSpaceOnUse"><stop offset="0" stop-color="#f19d00"/><stop offset="1" stop-color="#fec400"/></linearGradient></defs><title>taurus</title><g id="Taurus"><g class="cls-2"><g class="cls-3"><rect class="cls-4" width="60" height="60"/></g><g class="cls-2"><path class="cls-5" d="M37,24.13a13.7,13.7,0,0,0,6.65-11.74,2,2,0,0,0-3.91,0,9.79,9.79,0,1,1-19.57,0,2,2,0,0,0-3.91,0A13.7,13.7,0,0,0,23,24.13a13.7,13.7,0,1,0,14.09,0M30,45.65a9.78,9.78,0,1,1,9.78-9.78A9.8,9.8,0,0,1,30,45.65"/></g></g></g></svg>