<?xml version="1.0" encoding="utf-8"?>
<!-- Generator: Adobe Illustrator 22.0.0, SVG Export Plug-In . SVG Version: 6.00 Build 0)  -->
<svg version="1.1" id="Layer_1" xmlns="http://www.w3.org/2000/svg" xmlns:xlink="http://www.w3.org/1999/xlink" x="0px" y="0px"
	 viewBox="0 0 276.3 175.7" style="enable-background:new 0 0 276.3 175.7;" xml:space="preserve">
<style type="text/css">
	.st0{fill:#DD5EA6;}
</style>
<g>
	<path class="st0" d="M157.9,32.5c-4.4-4.3-10.5-5.8-16.2-4.2v-7v-5.1c0-7.6-6.1-13.8-13.7-13.8l-8.9-0.1c-1,0-1.9,0.8-1.9,1.9v4.1
		c0,1,0.8,1.9,1.9,1.9l8.9,0.1c3.2,0,5.9,2.7,5.9,5.9v1.2h-8.6c-6.7,0-12.3,5.3-12.4,12c-0.1,4,1.7,7.7,5,10
		c2.1,1.6,4.6,2.4,7.1,2.4c1.2,0,2.5-0.2,3.7-0.6l5.2-1.6v13.3h-4.2c-8.8,0-16.3,6.8-16.8,15.6c-0.3,5.9,2.5,11.4,7.4,14.7
		c2.7,1.8,5.9,2.7,9.1,2.7c2.2,0,4.4-0.4,6.5-1.3l5.4-2.3c1-0.4,1.4-1.5,1-2.5l-1.6-3.8c-0.4-1-1.5-1.4-2.5-1l-5.4,2.3
		c-2.8,1.2-6,0.9-8.5-1c-1.8-1.3-3-3.4-3.4-5.6c-0.8-5.3,3.3-9.9,8.5-9.9h4.5h7.9h4.5c9.8,0,17.6-8.6,16.3-18.7
		C162.2,38.4,160.5,35,157.9,32.5 M126.3,33.6L126.3,33.6c-1.3,0.4-2.7,0.2-3.8-0.6c-1.1-0.8-1.7-2.1-1.7-3.4c0-2.4,1.9-4.3,4.3-4.3
		h8.9v6L126.3,33.6z M146.3,52.8h-4.5V36.7l1.2-0.5c2.7-1.2,5.7-0.9,8.1,0.7c2.4,1.6,3.9,4.2,3.9,7.2
		C154.9,48.9,151,52.8,146.3,52.8"/>
	<path class="st0" d="M15.6,119.1h0.9v-0.5c0-3-1.9-4-4.2-4c-1.9,0-3.7,0.7-4.7,1.3c-1.1,0.5-2,0.3-2.5-0.8l-0.4-0.8
		c-0.5-1-0.4-1.9,0.7-2.5c1.5-0.8,4.1-1.9,7.4-1.9c5.9,0,9.4,3.3,9.4,9.1v12.4c0,1.3-0.6,1.9-1.9,1.9h-1.5c-1.2,0-1.8-0.6-1.8-1.9
		v-0.9c0-0.6,0.1-1,0.1-1H17c0,0-2.1,4.3-7.1,4.3c-4.1,0-7.5-2.7-7.5-6.8C2.3,120.2,10.5,119.1,15.6,119.1 M11.4,129.4
		c3.2,0,5.2-3.2,5.2-6v-0.8h-0.9c-2.9,0-7.7,0.4-7.7,3.8C8,127.9,9.1,129.4,11.4,129.4"/>
	<path class="st0" d="M26.6,103.3c0-1.2,0.7-1.9,1.9-1.9h1.9c1.2,0,1.9,0.7,1.9,1.9v8.3c0,1.1-0.1,1.9-0.1,1.9h0.1c0,0,2-3.7,7-3.7
		c6,0,10,4.9,10,11.9c0,7.3-4.5,12-10.4,12c-5.1,0-7-3.8-7-3.8h-0.1c0,0,0.1,0.4,0.1,1v0.7c0,1-0.6,1.6-1.9,1.6h-1.5
		c-1.2,0-1.9-0.6-1.9-1.9C26.6,131.3,26.6,103.3,26.6,103.3z M37.7,129c3.2,0,5.8-2.6,5.8-7.1c0-4.3-2.3-7.2-5.6-7.2
		c-2.9,0-5.8,2.2-5.8,7.1C32.1,125.5,34,129,37.7,129"/>
	<path class="st0" d="M63.6,109.9c3.7,0,6.1,1.3,7.4,2.3c0.9,0.6,1,1.6,0.4,2.6l-0.6,0.9c-0.7,1-1.4,1-2.5,0.5
		c-0.9-0.6-2.5-1.4-4.4-1.4c-4.2,0-6.9,3.2-6.9,7.1c0,3.8,2.7,7.2,7.1,7.2c2.2,0,4-1,5.1-1.7c1.1-0.6,2-0.5,2.5,0.6l0.4,0.9
		c0.5,1,0.4,1.9-0.5,2.5c-1.4,1-4.1,2.6-8.1,2.6c-7.5,0-12.4-5.3-12.4-11.9C51.2,115.3,56,109.9,63.6,109.9"/>
	<path class="st0" d="M99,119.1h0.9v-0.5c0-3-1.9-4-4.2-4c-1.9,0-3.7,0.7-4.7,1.3c-1.1,0.5-2,0.3-2.5-0.8l-0.4-0.8
		c-0.5-1-0.4-1.9,0.7-2.5c1.5-0.8,4.1-1.9,7.4-1.9c5.9,0,9.4,3.3,9.4,9.1v12.4c0,1.3-0.6,1.9-1.9,1.9h-1.5c-1.2,0-1.8-0.6-1.8-1.9
		v-0.9c0-0.6,0.1-1,0.1-1h-0.1c0,0-2.1,4.3-7.1,4.3c-4.1,0-7.5-2.7-7.5-6.8C85.7,120.2,93.9,119.1,99,119.1 M94.7,129.4
		c3.2,0,5.2-3.2,5.2-6v-0.8H99c-2.9,0-7.7,0.4-7.7,3.8C91.3,127.9,92.5,129.4,94.7,129.4"/>
	<path class="st0" d="M109,128.9l0.5-0.8c0.7-0.9,1.4-1,2.5-0.4s2.8,1.6,5.1,1.6c2,0,3.2-0.9,3.2-2.3c0-3.7-11.3-2.3-11.3-10.2
		c0-4.5,3.9-6.8,8.7-6.8c3,0,5.1,1,6.3,1.7c1,0.5,1.2,1.5,0.7,2.5l-0.4,0.8c-0.5,1.1-1.4,1.2-2.5,0.7c-1-0.4-2.5-1.1-4.3-1.1
		c-2,0-3.1,0.8-3.1,2.2c0,3.8,11.3,2.3,11.3,10.1c0,4-3.4,7-8.7,7c-3.7,0-6.2-1.4-7.6-2.3C108.4,130.8,108.3,129.9,109,128.9"/>
	<path class="st0" d="M130.3,115.2h-1.2c-1.2,0-1.8-0.6-1.8-1.9v-0.8c0-1.2,0.6-1.9,1.9-1.9h1.3v-4.7c0-1.2,0.7-1.9,1.9-1.9h1.8
		c1.2,0,1.9,0.7,1.9,1.9v4.7h3.3c1.2,0,1.9,0.7,1.9,1.9v0.8c0,1.3-0.7,1.9-1.8,1.9H136v8.9c0,3.4,2.1,4.1,3.7,4.3
		c1.4,0.1,1.9,0.6,1.9,1.8v1.4c0,1.3-0.8,1.9-2.3,1.9c-4.1,0-8.9-2.2-8.9-8.4L130.3,115.2L130.3,115.2z"/>
	<path class="st0" d="M145.3,112.3c0-1.2,0.6-1.9,1.8-1.9h1.7c1.2,0,1.9,0.7,1.9,1.9v2.1c0,0.8-0.1,1.6-0.1,1.6h0.1
		c0.9-2.7,3.4-5.8,6.6-5.8c1.2,0,1.7,0.6,1.7,1.9v1.7c0,1.2-0.7,1.9-1.9,1.9c-4.1,0-6.2,4.1-6.2,8.3v7.3c0,1.3-0.6,1.9-1.8,1.9h-2
		c-1.2,0-1.8-0.6-1.8-1.9V112.3z"/>
	<path class="st0" d="M172.2,109.9c6.9,0,12.5,5,12.5,11.9c0,7-5.6,11.9-12.5,11.9s-12.5-4.9-12.5-11.9
		C159.7,114.8,165.3,109.9,172.2,109.9 M172.2,128.9c3.7,0,6.8-2.9,6.8-7.1s-3.1-7.1-6.8-7.1s-6.7,2.9-6.7,7.1
		C165.5,126.1,168.5,128.9,172.2,128.9"/>
	<path class="st0" d="M188,103.3c0-1.2,0.6-1.9,1.8-1.9h2c1.2,0,1.8,0.7,1.8,1.9v22.3c0,2.2,0.9,2.6,1.8,2.7
		c0.8,0.1,1.4,0.6,1.4,1.6v1.5c0,1.2-0.5,1.9-1.9,1.9c-3,0-6.9-0.8-6.9-7.3L188,103.3L188,103.3z"/>
	<path class="st0" d="M210.5,109.9c6.9,0,12.5,5,12.5,11.9c0,7-5.6,11.9-12.5,11.9s-12.5-4.9-12.5-11.9
		C198,114.8,203.6,109.9,210.5,109.9 M210.5,128.9c3.7,0,6.8-2.9,6.8-7.1s-3.1-7.1-6.8-7.1s-6.7,2.9-6.7,7.1
		C203.8,126.1,206.8,128.9,210.5,128.9"/>
	<path class="st0" d="M231.4,136.9c1.1,0.4,2.5,0.9,4.6,0.9c3.5,0,6.4-1.5,6.4-5.5v-1.7c0-0.5,0.1-1.2,0.1-1.2h-0.1
		c-1.2,2.1-3.2,3.4-6.2,3.4c-6.6,0-10.3-5.3-10.3-11.6c0-6.2,3.5-11.3,10.3-11.3c5.3,0,6.7,3.5,6.7,3.5h0.1c0,0,0-0.2,0-0.6V112
		c0-0.9,0.6-1.5,1.8-1.5h1.5c1.2,0,1.8,0.7,1.8,1.9V132c0,7.8-6.2,10.8-11.8,10.8c-2.5,0-5.1-0.5-6.6-1.2c-1.2-0.5-1.5-1.3-1-2.4
		l0.4-1C229.6,136.8,230.2,136.5,231.4,136.9 M242.6,121.3c0-5.2-2.6-6.6-5.5-6.6c-3.5,0-5.4,2.5-5.4,6.3c0,4.1,2.1,7,5.7,7
		C240,128,242.6,126.4,242.6,121.3"/>
	<path class="st0" d="M254,137.5c0.4,0.2,0.9,0.4,1.6,0.4c1.7,0,2.9-1.4,3.6-3l0.8-2l-8.7-20.3c-0.6-1.3,0-2.2,1.4-2.2h2.4
		c1.1,0,1.7,0.5,2.1,1.5l4.3,11.6c0.4,1.2,0.8,3.1,0.8,3.1h0.1c0,0,0.4-1.8,0.8-3l4-11.7c0.3-1.1,1-1.6,2.1-1.6h2.2
		c1.4,0,2,0.8,1.5,2.1l-9.4,24.1c-1.6,4.2-4.9,6-8.2,6c-1.2,0-2.4-0.4-3.2-0.7c-1.1-0.4-1.3-1.4-0.8-2.4l0.4-1
		C252.5,137.5,253.3,137.3,254,137.5"/>
	<g>
		<path class="st0" d="M3.7,156.8H3c-0.4,0-0.6-0.3-0.6-0.6v-0.3c0-0.4,0.3-0.6,0.6-0.6h0.6v-2.2c0-0.4,0.3-0.6,0.6-0.6h0.5
			c0.4,0,0.6,0.3,0.6,0.6v2.2h1.8c0.4,0,0.6,0.3,0.6,0.6v0.3c0,0.4-0.3,0.6-0.6,0.6H5.6v4.3c0,1.9,1.2,2.2,1.9,2.2
			c0.5,0,0.6,0.3,0.6,0.6v0.4c0,0.5-0.3,0.6-0.8,0.6c-1.9,0-3.6-1.2-3.6-3.6v-4.6H3.7z"/>
		<path class="st0" d="M15.8,155c2.9,0,5.2,2.2,5.2,5.1s-2.3,5.1-5.2,5.1s-5.2-2.2-5.2-5.1C10.6,157.1,12.9,155,15.8,155
			 M15.8,163.6c1.9,0,3.3-1.5,3.3-3.6s-1.5-3.5-3.3-3.5s-3.3,1.4-3.3,3.5C12.5,162.2,13.9,163.6,15.8,163.6"/>
		<path class="st0" d="M30.9,155.8c0-0.4,0.3-0.6,0.6-0.6H32c0.4,0,0.6,0.3,0.6,0.6v1.2c0,0.4,0,0.8,0,0.8l0,0
			c0.4-1.3,1.5-2.6,2.9-2.6c0.4,0,0.6,0.3,0.6,0.6v0.5c0,0.4-0.3,0.6-0.6,0.6c-1.9,0-2.8,2-2.8,4v3.5c0,0.4-0.3,0.6-0.6,0.6h-0.6
			c-0.4,0-0.6-0.3-0.6-0.6V155.8z"/>
		<path class="st0" d="M43.3,155c2.7,0,4.2,1.9,4.2,4.7c0,0.4-0.3,0.6-0.6,0.6h-6.5c0.1,2.2,1.7,3.3,3.5,3.3c1,0,1.9-0.5,2.3-0.8
			c0.4-0.3,0.6-0.1,0.9,0.3l0.1,0.3c0.3,0.4,0.1,0.6-0.3,0.9c-0.6,0.4-1.8,1-3.3,1c-3.1,0-5.2-2.2-5.2-5.1
			C38.3,157,40.5,155,43.3,155 M45.6,159.1c0-1.8-1-2.7-2.4-2.7c-1.4,0-2.6,1-2.8,2.7H45.6z"/>
		<path class="st0" d="M51,155.8c0-0.4,0.3-0.6,0.6-0.6h0.5c0.4,0,0.6,0.3,0.6,0.6v0.9c0,0.3,0,0.5,0,0.5l0,0
			c0.5-1.2,1.9-2.3,3.5-2.3c1.7,0,2.6,0.8,2.9,2.2l0,0c0.5-1.2,1.9-2.2,3.5-2.2c2.2,0,3.2,1.3,3.2,3.8v5.6c0,0.4-0.3,0.6-0.6,0.6
			h-0.6c-0.4,0-0.6-0.3-0.6-0.6v-5.2c0-1.4-0.3-2.4-1.7-2.4c-1.8,0-2.9,1.9-2.9,3.8v4c0,0.4-0.3,0.6-0.6,0.6H58
			c-0.4,0-0.6-0.3-0.6-0.6v-5.2c0-1.3-0.3-2.4-1.7-2.4c-1.9,0-2.9,1.9-2.9,3.8v4c0,0.4-0.3,0.6-0.6,0.6h-0.6c-0.4,0-0.6-0.3-0.6-0.6
			v-8.8H51z"/>
		<path class="st0" d="M69.9,152.6V152c0-0.4,0.3-0.6,0.6-0.6h0.6c0.4,0,0.6,0.3,0.6,0.6v0.6c0,0.4-0.3,0.6-0.6,0.6h-0.6
			C70.1,153.3,69.9,153,69.9,152.6 M69.9,155.8c0-0.4,0.3-0.6,0.6-0.6h0.6c0.4,0,0.6,0.3,0.6,0.6v8.6c0,0.4-0.3,0.6-0.6,0.6h-0.6
			c-0.4,0-0.6-0.3-0.6-0.6V155.8z"/>
		<path class="st0" d="M76,155.8c0-0.4,0.3-0.6,0.6-0.6h0.5c0.4,0,0.6,0.3,0.6,0.6v0.9c0,0.3,0,0.5,0,0.5l0,0
			c0.4-0.9,1.5-2.3,3.7-2.3c2.3,0,3.3,1.3,3.3,3.8v5.6c0,0.4-0.3,0.6-0.6,0.6h-0.6c-0.4,0-0.6-0.3-0.6-0.6v-5.2
			c0-1.4-0.3-2.4-1.8-2.4c-1.9,0-3.3,1.5-3.3,3.6v4.1c0,0.4-0.3,0.6-0.6,0.6h-0.6c-0.4,0-0.6-0.3-0.6-0.6v-8.6H76z"/>
		<path class="st0" d="M92.7,155c2.3,0,3.1,1.7,3.1,1.7l0,0c0,0,0-0.3,0-0.6V152c0-0.4,0.3-0.6,0.6-0.6h0.6c0.4,0,0.6,0.3,0.6,0.6
			v12.4c0,0.4-0.3,0.6-0.6,0.6h-0.5c-0.4,0-0.6-0.3-0.6-0.6v-0.5c0-0.3,0-0.5,0-0.5l0,0c0,0-0.9,1.9-3.2,1.9c-2.7,0-4.3-2-4.3-5.1
			C88.3,157,90.1,155,92.7,155 M93,163.6c1.4,0,2.8-1,2.8-3.6c0-1.8-0.9-3.5-2.8-3.5c-1.5,0-2.8,1.3-2.8,3.5
			C90.2,162.3,91.3,163.6,93,163.6"/>
		<path class="st0" d="M107.8,167.3c0.3,0.1,0.4,0.3,0.8,0.3c0.8,0,1.4-0.6,1.7-1.5l0.5-1.2l-3.8-8.9c-0.3-0.4,0-0.8,0.5-0.8h0.8
			c0.4,0,0.6,0.1,0.8,0.5l2.3,5.9c0.1,0.5,0.4,1.2,0.4,1.2l0,0c0,0,0.1-0.6,0.4-1.2l2.2-5.9c0.1-0.4,0.4-0.5,0.8-0.5h0.6
			c0.5,0,0.6,0.3,0.5,0.8l-4.3,10.9c-0.6,1.5-1.8,2.3-3.2,2.3c-0.5,0-1-0.1-1.4-0.3c-0.4-0.1-0.4-0.5-0.3-0.9l0.1-0.4
			C107.3,167.3,107.6,167.3,107.8,167.3"/>
		<path class="st0" d="M123.8,155c2.9,0,5.2,2.2,5.2,5.1s-2.3,5.1-5.2,5.1c-2.9,0-5.2-2.2-5.2-5.1C118.6,157.1,120.9,155,123.8,155
			 M123.8,163.6c1.9,0,3.3-1.5,3.3-3.6s-1.5-3.5-3.3-3.5c-1.8,0-3.3,1.4-3.3,3.5C120.5,162.2,122,163.6,123.8,163.6"/>
		<path class="st0" d="M132.5,155.8c0-0.4,0.3-0.6,0.6-0.6h0.6c0.4,0,0.6,0.3,0.6,0.6v5.2c0,1.4,0.3,2.4,1.8,2.4
			c2,0,3.2-1.8,3.2-3.7v-4c0-0.4,0.3-0.6,0.6-0.6h0.6c0.4,0,0.6,0.3,0.6,0.6v8.6c0,0.4-0.3,0.6-0.6,0.6h-0.5c-0.4,0-0.6-0.3-0.6-0.6
			v-0.8c0-0.3,0-0.5,0-0.5l0,0c-0.4,1-1.7,2.3-3.7,2.3c-2.2,0-3.3-1.2-3.3-3.8V155.8z"/>
		<path class="st0" d="M150.9,155.9c-0.1-0.4,0.1-0.8,0.5-0.8h0.6c0.4,0,0.6,0.1,0.8,0.5l1.9,6.4c0.1,0.5,0.3,1,0.3,1l0,0
			c0,0,0.1-0.5,0.3-1l1.9-6.4c0.1-0.4,0.4-0.5,0.6-0.5h0.6c0.4,0,0.6,0.1,0.8,0.5l1.9,6.4c0.1,0.5,0.3,1,0.3,1l0,0
			c0,0,0.1-0.5,0.3-1l1.9-6.4c0.1-0.4,0.3-0.5,0.6-0.5h0.6c0.5,0,0.6,0.3,0.5,0.8l-2.8,8.6c-0.1,0.4-0.4,0.5-0.8,0.5h-0.9
			c-0.4,0-0.6-0.1-0.8-0.5l-1.9-5.8c-0.1-0.5-0.3-1-0.3-1l0,0c0,0-0.1,0.5-0.3,1l-1.9,5.8c-0.1,0.4-0.4,0.5-0.8,0.5h-1
			c-0.4,0-0.6-0.1-0.8-0.5L150.9,155.9z"/>
		<path class="st0" d="M168.8,152c0-0.4,0.3-0.6,0.6-0.6h0.6c0.4,0,0.6,0.3,0.6,0.6v4.5c0,0.5,0,0.8,0,0.8l0,0
			c0.4-0.9,1.7-2.3,3.7-2.3c2.3,0,3.3,1.3,3.3,3.8v5.6c0,0.4-0.3,0.6-0.6,0.6h-0.6c-0.4,0-0.6-0.3-0.6-0.6v-5.2
			c0-1.4-0.3-2.4-1.9-2.4c-1.9,0-3.3,1.5-3.3,3.7v4c0,0.4-0.3,0.6-0.6,0.6h-0.6c-0.4,0-0.6-0.3-0.6-0.6V152H168.8z"/>
		<path class="st0" d="M186.3,155c2.9,0,5.2,2.2,5.2,5.1s-2.3,5.1-5.2,5.1c-2.9,0-5.2-2.2-5.2-5.1C181,157.1,183.3,155,186.3,155
			 M186.3,163.6c1.9,0,3.3-1.5,3.3-3.6s-1.5-3.5-3.3-3.5c-1.8,0-3.3,1.4-3.3,3.5C183,162.2,184.5,163.6,186.3,163.6"/>
		<path class="st0" d="M201.2,167.3c0.3,0.1,0.4,0.3,0.8,0.3c0.8,0,1.4-0.6,1.7-1.5l0.5-1.2l-3.8-8.9c-0.3-0.4,0-0.8,0.5-0.8h0.8
			c0.4,0,0.6,0.1,0.8,0.5l2.3,5.9c0.1,0.5,0.4,1.2,0.4,1.2l0,0c0,0,0.1-0.6,0.4-1.2l2.2-5.9c0.1-0.4,0.4-0.5,0.8-0.5h0.6
			c0.5,0,0.6,0.3,0.5,0.8l-4.3,10.9c-0.6,1.5-1.8,2.3-3.2,2.3c-0.5,0-1-0.1-1.4-0.3c-0.4-0.1-0.4-0.5-0.3-0.9l0.1-0.4
			C200.6,167.3,201,167.3,201.2,167.3"/>
		<path class="st0" d="M217.2,155c2.9,0,5.2,2.2,5.2,5.1s-2.3,5.1-5.2,5.1s-5.2-2.2-5.2-5.1C211.8,157.1,214.3,155,217.2,155
			 M217.2,163.6c1.9,0,3.3-1.5,3.3-3.6s-1.5-3.5-3.3-3.5c-1.8,0-3.3,1.4-3.3,3.5C213.8,162.2,215.3,163.6,217.2,163.6"/>
		<path class="st0" d="M225.9,155.8c0-0.4,0.3-0.6,0.6-0.6h0.6c0.4,0,0.6,0.3,0.6,0.6v5.2c0,1.4,0.3,2.4,1.8,2.4
			c2,0,3.2-1.8,3.2-3.7v-4c0-0.4,0.3-0.6,0.6-0.6h0.6c0.4,0,0.6,0.3,0.6,0.6v8.6c0,0.4-0.3,0.6-0.6,0.6h-0.6c-0.4,0-0.6-0.3-0.6-0.6
			v-0.8c0-0.3,0-0.5,0-0.5l0,0c-0.4,1-1.7,2.3-3.6,2.3c-2.2,0-3.3-1.2-3.3-3.8L225.9,155.8L225.9,155.8z"/>
		<path class="st0" d="M250.2,159h0.5v-0.3c0-1.7-0.9-2.2-2.2-2.2c-1,0-1.8,0.4-2.2,0.6c-0.4,0.1-0.6,0.1-0.9-0.3l-0.1-0.3
			c-0.3-0.4-0.1-0.6,0.3-0.9c0.6-0.4,1.7-0.9,3.2-0.9c2.4,0,3.8,1.4,3.8,3.8v5.6c0,0.4-0.3,0.6-0.6,0.6h-0.5c-0.4,0-0.6-0.3-0.6-0.6
			v-0.6c0-0.4,0-0.6,0-0.6l0,0c0,0-0.9,2-3.2,2c-1.7,0-3.3-1-3.3-2.9C244.3,159.4,248.1,159,250.2,159 M248,163.9
			c1.7,0,2.7-1.7,2.7-3.1v-0.4h-0.5c-1.4,0-4,0.1-4,2C246.2,163,246.9,163.9,248,163.9"/>
		<path class="st0" d="M256.6,155.8c0-0.4,0.3-0.6,0.6-0.6h0.5c0.4,0,0.6,0.3,0.6,0.6v1.2c0,0.4,0,0.8,0,0.8l0,0
			c0.4-1.3,1.5-2.6,2.9-2.6c0.4,0,0.6,0.3,0.6,0.6v0.5c0,0.4-0.3,0.6-0.6,0.6c-1.9,0-2.8,2-2.8,4v3.5c0,0.4-0.3,0.6-0.6,0.6h-0.6
			c-0.4,0-0.6-0.3-0.6-0.6V155.8z"/>
		<path class="st0" d="M269,155c2.7,0,4.2,1.9,4.2,4.7c0,0.4-0.3,0.6-0.6,0.6H266c0.1,2.2,1.7,3.3,3.5,3.3c1,0,1.9-0.5,2.3-0.8
			c0.4-0.3,0.6-0.1,0.9,0.3l0.1,0.3c0.3,0.4,0.1,0.6-0.3,0.9c-0.6,0.4-1.8,1-3.3,1c-3.1,0-5.2-2.2-5.2-5.1
			C264,157,266.1,155,269,155 M271.3,159.1c0-1.8-1-2.7-2.4-2.7c-1.4,0-2.6,1-2.8,2.7H271.3z"/>
	</g>
</g>
</svg>
